<svg width="44" height="54" viewBox="0 0 44 54" fill="none" xmlns="http://www.w3.org/2000/svg">
<path d="M10.7334 52.3745C9.68657 51.6781 8.7588 50.8175 7.98573 49.826C7.13536 48.8025 6.34747 47.7287 5.62633 46.6104C3.93407 44.1312 2.60696 41.4217 1.68571 38.5649C0.579016 35.2465 0.0430908 32.0658 0.0430908 28.9547C0.0430908 25.4804 0.794713 22.4473 2.26477 19.8988C3.35451 17.9068 4.9567 16.2422 6.90558 15.0771C8.79428 13.904 10.9644 13.262 13.1874 13.2188C13.9655 13.2188 14.8034 13.3316 15.6928 13.5473C16.3316 13.7282 17.1097 14.0136 18.0605 14.3686C19.27 14.8349 19.9354 15.1202 20.161 15.1899C20.8695 15.4488 21.4652 15.5616 21.9331 15.5616C22.2881 15.5616 22.7892 15.4488 23.3583 15.2762C23.6785 15.1634 24.2825 14.9643 25.1469 14.5943C26.0031 14.2823 26.6767 14.0152 27.2127 13.8161C28.034 13.5739 28.8287 13.3499 29.5372 13.237C30.3771 13.1046 31.2295 13.0696 32.0775 13.1325C33.5469 13.2286 34.9942 13.5399 36.3732 14.0567C38.628 14.9643 40.4515 16.3812 41.8087 18.3955C41.2351 18.7491 40.6967 19.1569 40.201 19.6134C39.1218 20.5701 38.2026 21.6931 37.4782 22.9401C36.5313 24.6442 36.0404 26.5639 36.0529 28.5134C36.0878 30.9076 36.7017 33.0165 37.9112 34.84C38.8005 36.1914 39.9562 37.3471 41.3076 38.2364C41.9995 38.7026 42.5952 39.0228 43.166 39.2385C42.8988 40.0681 42.6134 40.8712 42.2766 41.6676C41.5127 43.4536 40.5869 45.1658 39.5107 46.783C38.5517 48.175 37.8001 49.212 37.2293 49.9023C36.34 50.9559 35.4838 51.7606 34.6194 52.3214C33.6686 52.9519 32.5454 53.2887 31.4038 53.2887C30.6307 53.3184 29.8578 53.2249 29.1141 53.0116C28.4753 52.7959 27.8432 52.562 27.221 52.2949C26.5741 51.9977 25.9071 51.7466 25.2249 51.5432C23.5387 51.1101 21.7707 51.1073 20.083 51.5349C19.3911 51.734 18.7258 51.9663 18.0688 52.2517C17.1446 52.64 16.5307 52.9005 16.1756 53.0116C15.4671 53.219 14.7321 53.3485 13.9888 53.3916C12.8389 53.3916 11.7671 53.0631 10.7052 52.3977L10.7334 52.3745ZM25.8986 11.533C24.3953 12.2847 22.9601 12.6049 21.5348 12.5004C21.3108 11.0651 21.5348 9.59674 22.1305 7.98896C22.6376 6.62686 23.3869 5.36771 24.3422 4.27233C25.351 3.11921 26.5752 2.17405 27.946 1.48983C29.4061 0.738211 30.7982 0.331704 32.1289 0.271973C32.3015 1.77522 32.1289 3.25357 31.5764 4.85139C31.0651 6.26385 30.3172 7.57902 29.3647 8.74058C28.3925 9.89528 27.1994 10.8441 25.8554 11.5314L25.8986 11.533Z" fill="black"/>
</svg>
