<svg width="54" height="54" viewBox="0 0 54 54" fill="none" xmlns="http://www.w3.org/2000/svg">
<path d="M13.4263 31.8561L11.7462 38.1283L5.60531 38.2582C3.77009 34.8543 2.72913 30.9597 2.72913 26.8212C2.72913 22.8192 3.7024 19.0452 5.42761 15.7222H5.42893L10.896 16.7245L13.2909 22.1588C12.7897 23.6201 12.5165 25.1888 12.5165 26.8212C12.5167 28.5927 12.8376 30.2901 13.4263 31.8561Z" fill="#FBBB00"/>
<path d="M50.5754 22.3125C50.8526 23.7724 50.9971 25.2801 50.9971 26.821C50.9971 28.5489 50.8154 30.2343 50.4693 31.86C49.2945 37.3923 46.2247 42.223 41.9721 45.6416L41.9708 45.6402L35.0847 45.2889L34.1101 39.205C36.9319 37.5501 39.1371 34.9603 40.2988 31.86H27.3937V22.3125H40.487H50.5754Z" fill="#518EF8"/>
<path d="M41.9706 45.6406L41.9719 45.6419C37.836 48.9663 32.5822 50.9554 26.863 50.9554C17.6722 50.9554 9.68151 45.8183 5.60522 38.2585L13.4262 31.8564C15.4643 37.2958 20.7115 41.1679 26.863 41.1679C29.5071 41.1679 31.9842 40.4531 34.1098 39.2053L41.9706 45.6406Z" fill="#28B446"/>
<path d="M42.2676 8.24335L34.4493 14.6441C32.2494 13.2691 29.649 12.4747 26.863 12.4747C20.5722 12.4747 15.2269 16.5244 13.2909 22.1588L5.42881 15.7222H5.42749C9.4441 7.97816 17.5356 2.68726 26.863 2.68726C32.7188 2.68726 38.0879 4.77315 42.2676 8.24335Z" fill="#F14336"/>
</svg>
