<svg width="65" height="65" viewBox="0 0 65 65" fill="none" xmlns="http://www.w3.org/2000/svg">
<path d="M59.8855 64.2817L37.409 41.8051C35.6251 43.2322 33.5737 44.362 31.2547 45.1945C28.9357 46.0269 26.468 46.4432 23.8517 46.4432C17.3704 46.4432 11.8856 44.1979 7.39745 39.7073C2.90928 35.2168 0.664001 29.732 0.661623 23.2531C0.659245 16.7741 2.90452 11.2894 7.39745 6.79882C11.8904 2.30826 17.3751 0.0629883 23.8517 0.0629883C30.3283 0.0629883 35.8142 2.30826 40.3095 6.79882C44.8048 11.2894 47.0489 16.7741 47.0418 23.2531C47.0418 25.8694 46.6256 28.337 45.7931 30.6561C44.9606 32.9751 43.8309 35.0265 42.4038 36.8103L64.8803 59.2869L59.8855 64.2817ZM23.8517 39.3077C28.3113 39.3077 32.1026 37.7475 35.2255 34.6269C38.3485 31.5064 39.9088 27.7151 39.9064 23.2531C39.904 18.7911 38.3437 15.001 35.2255 11.8828C32.1074 8.76462 28.3161 7.20316 23.8517 7.1984C19.3873 7.19364 15.5972 8.75511 12.4814 11.8828C9.36563 15.0105 7.80417 18.8006 7.79703 23.2531C7.7899 27.7056 9.35136 31.4968 12.4814 34.6269C15.6115 37.757 19.4016 39.3173 23.8517 39.3077Z" fill="#BABABA"/>
</svg>
