<svg width="65" height="65" viewBox="0 0 65 65" fill="none" xmlns="http://www.w3.org/2000/svg">
<path d="M32.3789 0.422302C36.6368 0.422302 40.7204 2.11377 43.7312 5.12461C46.7421 8.13544 48.4335 12.219 48.4335 16.477C48.4335 20.7349 46.7421 24.8185 43.7312 27.8293C40.7204 30.8402 36.6368 32.5316 32.3789 32.5316C28.1209 32.5316 24.0373 30.8402 21.0265 27.8293C18.0157 24.8185 16.3242 20.7349 16.3242 16.477C16.3242 12.219 18.0157 8.13544 21.0265 5.12461C24.0373 2.11377 28.1209 0.422302 32.3789 0.422302ZM32.3789 40.559C50.1193 40.559 64.4882 47.7434 64.4882 56.6136V64.641H0.269531V56.6136C0.269531 47.7434 14.6385 40.559 32.3789 40.559Z" fill="#4285F4"/>
</svg>
