<svg width="55" height="65" viewBox="0 0 55 65" fill="none" xmlns="http://www.w3.org/2000/svg">
<path d="M53.5892 44.3499C53.3535 44.0659 53.122 43.7818 52.8948 43.5077C49.7704 39.7286 47.8801 37.4478 47.8801 26.7496C47.8801 21.2109 46.5551 16.6663 43.9434 13.2579C42.0176 10.7399 39.4144 8.82977 35.9833 7.41811C35.9391 7.39355 35.8997 7.36133 35.8668 7.32296C34.6327 3.19023 31.2555 0.422302 27.4466 0.422302C23.6376 0.422302 20.2619 3.19023 19.0277 7.3187C18.9949 7.35572 18.956 7.38693 18.9127 7.41101C10.9057 10.7072 7.01444 17.0313 7.01444 26.7453C7.01444 37.4478 5.12702 39.7286 1.99979 43.5035C1.77256 43.7776 1.54107 44.0559 1.30532 44.3456C0.696345 45.08 0.310511 45.9735 0.193478 46.9204C0.0764439 47.8672 0.233109 48.8278 0.644934 49.6884C1.52118 51.5346 3.38872 52.6807 5.52041 52.6807H49.3884C51.5101 52.6807 53.3649 51.536 54.244 49.6983C54.6576 48.8375 54.8157 47.8762 54.6997 46.9282C54.5836 45.9803 54.1983 45.0855 53.5892 44.3499ZM27.4466 64.0464C29.4988 64.0447 31.5123 63.4876 33.2735 62.4343C35.0348 61.3809 36.478 59.8704 37.4503 58.0632C37.4961 57.9765 37.5187 57.8796 37.516 57.7816C37.5132 57.6837 37.4852 57.5881 37.4346 57.5042C37.384 57.4203 37.3126 57.3509 37.2272 57.3028C37.1419 57.2547 37.0456 57.2294 36.9476 57.2295H17.9484C17.8503 57.2292 17.7538 57.2542 17.6683 57.3023C17.5827 57.3503 17.5111 57.4197 17.4603 57.5036C17.4096 57.5875 17.3814 57.6832 17.3786 57.7813C17.3758 57.8793 17.3984 57.9764 17.4442 58.0632C18.4164 59.8702 19.8595 61.3805 21.6204 62.4339C23.3814 63.4873 25.3946 64.0445 27.4466 64.0464Z" fill="#BABABA"/>
</svg>
