<svg width="47" height="52" viewBox="0 0 47 52" fill="none" xmlns="http://www.w3.org/2000/svg">
<path d="M5.08111 0.5625H27.946C29.2936 0.5625 30.586 1.09783 31.5388 2.05071C32.4917 3.0036 33.0271 4.29599 33.0271 5.64358V10.7247H27.946V5.64358H5.08111V46.2922H27.946V41.2111H33.0271V46.2922C33.0271 47.6398 32.4917 48.9322 31.5388 49.8851C30.586 50.838 29.2936 51.3733 27.946 51.3733H5.08111C3.73353 51.3733 2.44113 50.838 1.48824 49.8851C0.535357 48.9322 3.05176e-05 47.6398 3.05176e-05 46.2922V5.64358C3.05176e-05 4.29599 0.535357 3.0036 1.48824 2.05071C2.44113 1.09783 3.73353 0.5625 5.08111 0.5625Z" fill="#3A3A3A"/>
<path d="M30.7152 35.0885L34.2973 38.6707L47 25.968L34.2973 13.2653L30.7152 16.8474L37.2698 23.4274H12.7027V28.5085H37.2698L30.7152 35.0885Z" fill="#3A3A3A"/>
</svg>
